<?xml version="1.0" encoding="UTF-8" standalone="no"?>
<!-- Created with Inkscape (http://www.inkscape.org/) -->

<svg
   width="1230"
   height="300"
   viewBox="0 0 325.43749 79.375002"
   version="1.1"
   id="svg5"
   sodipodi:docname="aurelian-logo-font.svg"
   inkscape:version="1.1.2 (0a00cf5339, 2022-02-04)"
   xmlns:inkscape="http://www.inkscape.org/namespaces/inkscape"
   xmlns:sodipodi="http://sodipodi.sourceforge.net/DTD/sodipodi-0.dtd"
   xmlns="http://www.w3.org/2000/svg"
   xmlns:svg="http://www.w3.org/2000/svg">
  <sodipodi:namedview
     id="namedview7"
     pagecolor="#ffffff"
     bordercolor="#666666"
     borderopacity="1.0"
     inkscape:pageshadow="2"
     inkscape:pageopacity="0.0"
     inkscape:pagecheckerboard="false"
     inkscape:document-units="mm"
     showgrid="false"
     units="px"
     width="1230px"
     inkscape:zoom="0.97764854"
     inkscape:cx="590.19164"
     inkscape:cy="104.33197"
     inkscape:window-width="1920"
     inkscape:window-height="907"
     inkscape:window-x="0"
     inkscape:window-y="0"
     inkscape:window-maximized="1"
     inkscape:current-layer="layer3" />
  <defs
     id="defs2" />
  <g
     inkscape:groupmode="layer"
     id="layer1"
     inkscape:label="Logo"
     style="display:inline">
    <path
       id="path26947"
       style="fill:#ffcc00;stroke-width:0.412774"
       d="M 46.874653,3.3380448 A 44.092811,36.649563 0 0 0 5.6021316,39.899595 44.092811,36.649563 0 0 0 46.874653,76.4619 Z" />
  </g>
  <g
     inkscape:groupmode="layer"
     id="layer3"
     inkscape:label="Text"
     style="display:inline">
    <g
       aria-label="AURELIAN"
       transform="scale(0.81440666,1.2278878)"
       id="text1748"
       style="font-size:101.409px;line-height:1.25;font-family:Digitalt;-inkscape-font-specification:'Digitalt, Normal';fill:#b3b3b3;stroke-width:2.53524">
      <path
         d="m 25.426349,61.639134 q 0,-0.396129 0.470403,-3.094757 1.312177,-8.1454 2.995725,-16.860236 1.683548,-8.739593 4.357418,-21.663299 2.67387,-12.9484628 3.490886,-16.9840259 4.951611,-0.2228225 13.61693,-0.2228225 8.071126,0 14.112092,0.2228225 0.396129,0 0.742742,0.2970967 0.346613,0.2723386 0.420887,0.6932256 1.089354,5.5210464 3.68895,18.0486226 2.624354,12.527576 4.45645,22.15846 1.856854,9.606126 3.169031,18.221929 -4.679272,0.222823 -8.615803,0.222823 -6.313304,0 -9.705158,-0.222823 -0.420887,-0.02476 -0.7675,-0.297097 -0.321855,-0.297096 -0.396129,-0.693225 -1.114112,-5.694353 -1.807338,-9.903222 h -9.185238 q -0.792258,5.298223 -1.906371,10.893544 -4.753546,0.222823 -8.194916,0.222823 -4.109838,0 -10.126045,-0.222823 -0.371371,0 -0.594193,-0.222822 -0.222823,-0.247581 -0.222823,-0.594194 z M 48.129486,38.688416 h 5.570563 Q 53.105855,34.628095 52.090775,27.126404 51.075695,19.599955 50.63005,16.48044 50.134889,20.516004 49.317873,28.067211 48.500857,35.59366 48.129486,38.688416 Z"
         id="path3624" />
      <path
         d="m 78.631412,33.117854 q 0,-14.235882 0.396129,-30.0810379 4.704031,-0.2228225 8.66532,-0.2228225 4.085079,0 10.150803,0.2228225 0.396129,0 0.693225,0.2970967 0.297097,0.2970967 0.297097,0.6932256 0.396129,18.6180576 0.396129,32.0864406 0,3.243305 0.222822,5.273466 0.222823,2.03016 0.767503,3.094757 0.54467,1.039838 1.21314,1.386451 0.66847,0.346612 1.75782,0.346612 1.46073,0 2.20347,-0.668467 0.74274,-0.668468 1.13887,-2.871935 0.42089,-2.228225 0.42089,-6.585642 0,-17.206849 0.39613,-33.0520049 4.72879,-0.2228225 8.66532,-0.2228225 4.08508,0 10.1508,0.2228225 0.39613,0 0.69323,0.2970967 0.29709,0.2970967 0.29709,0.6932256 0.39613,18.6180576 0.39613,29.0907156 0,6.36282 -0.96556,11.314431 -0.96557,4.951612 -2.77291,8.442497 -1.80733,3.466128 -4.55548,5.768627 -2.72338,2.3025 -6.11524,3.44137 -3.39185,1.138871 -7.675,1.361693 -3.49088,0 -6.288541,-0.297096 -2.797661,-0.272339 -5.422014,-0.940807 -2.624354,-0.668467 -4.629757,-1.78258 -2.005402,-1.13887 -3.763224,-2.79766 Q 83.63254,55.944781 82.419395,53.66704 81.20625,51.364541 80.31496,48.368816 79.448428,45.373092 79.027541,41.585109 78.631412,37.772368 78.631412,33.117854 Z"
         id="path3626" />
      <path
         d="m 133.0001,31.459064 q 0,-4.951611 0.099,-13.715963 0.099,-8.7643515 0.099,-13.7159626 4.95161,-0.7674998 10.52218,-1.2131448 5.59532,-0.470403 9.77943,-0.470403 3.61467,0 6.06572,0.1237902 2.45105,0.099032 5.27347,0.4951612 2.84717,0.3713708 4.67927,1.0893544 1.8321,0.7179836 3.66419,1.9806445 1.8321,1.2626608 2.84718,3.0699989 1.03984,1.8073382 1.68355,4.4316922 0.64371,2.624354 0.64371,6.016207 0,5.372498 -2.77291,9.457578 -2.7729,4.085079 -7.72451,6.412336 3.3671,1.163629 5.47153,4.753547 4.92685,9.6804 7.87306,22.28225 -4.55548,0.544677 -10.37362,0.544677 -4.20887,0 -7.94734,-0.24758 -0.4704,-0.02476 -0.91605,-0.297097 -0.44564,-0.272339 -0.59419,-0.693226 -4.82782,-14.656769 -7.50169,-23.668701 h -1.31218 q 0.0495,2.772902 0.22282,11.363948 0.19807,8.591045 0.22283,12.997979 -4.06032,0.173306 -8.69008,0.173306 -4.18411,0 -10.12605,-0.173306 -0.42088,0 -0.71798,-0.272339 -0.27234,-0.297096 -0.27234,-0.717983 0,-4.580241 -0.099,-14.780559 -0.099,-10.200319 -0.099,-15.226205 z m 19.50935,-5.545804 h 1.68354 q 2.35202,0 3.78799,-1.163629 1.46072,-1.188387 1.46072,-3.119515 0,-2.426289 -0.99032,-3.589918 -0.99032,-1.188387 -3.51564,-1.188387 -1.28742,0 -2.37678,0.07427 -0.0495,5.793385 -0.0495,8.987175 z"
         id="path3628" />
      <path
         d="m 184.89299,32.746483 q 0,-13.864511 0.39613,-29.7096669 4.70403,-0.2228225 20.54919,-0.2228225 11.2154,0 17.28112,0.2228225 0.39613,0 0.69323,0.2970967 0.29709,0.2970967 0.29709,0.6932256 0.099,6.0409656 0.099,8.5662876 0,3.887014 -0.099,7.278868 -4.18411,0.198065 -15.74612,0.198065 -2.07968,0 -3.76323,-0.02476 -0.0495,3.416612 -0.0743,5.199192 8.86338,0.04952 11.85911,0.173307 0.39613,0 0.69322,0.297096 0.2971,0.297097 0.2971,0.693226 0.0743,4.060321 0.0743,7.452175 0,3.04524 -0.0743,6.6104 h -12.84943 q 0.0248,1.733064 0.0743,5.149676 h 1.18839 q 12.13145,0 17.5287,0.198065 0.39613,0 0.69323,0.297096 0.2971,0.297097 0.2971,0.693226 0.099,6.040965 0.099,8.566287 0,3.887015 -0.099,7.278869 -4.70403,0.222822 -16.98403,0.222822 -2.45105,0 -10.4479,-0.173306 -7.97209,-0.148549 -10.59645,-0.247581 -0.39613,0 -0.69322,-0.297097 -0.2971,-0.297096 -0.2971,-0.693225 -0.39613,-18.618058 -0.39613,-28.719345 z"
         id="path3630" />
      <path
         d="m 229.85361,32.746483 q 0,-13.864511 0.39613,-29.7096669 4.70403,-0.2228225 8.66532,-0.2228225 4.08508,0 10.1508,0.2228225 0.39613,0 0.69323,0.2970967 0.29709,0.2970967 0.29709,0.6932256 0.39613,18.6180576 0.39613,28.7193446 0,6.585643 -0.0743,12.849431 h 0.42088 q 9.03669,0 15.10242,0.222823 0.39613,0 0.69322,0.297096 0.2971,0.297097 0.2971,0.693226 0.099,6.040965 0.099,8.566287 0,3.887015 -0.099,7.278869 -4.70403,0.222822 -14.60725,0.222822 -2.45105,0 -10.4479,-0.173306 -7.9721,-0.148549 -10.59645,-0.247581 -0.39613,0 -0.69323,-0.297097 -0.29709,-0.297096 -0.29709,-0.693225 -0.39613,-18.618058 -0.39613,-28.719345 z"
         id="path3632" />
      <path
         d="m 270.45682,32.746483 q 0,-13.864511 0.39613,-29.7096669 4.70403,-0.2228225 8.66532,-0.2228225 4.08508,0 10.1508,0.2228225 0.39613,0 0.69323,0.2970967 0.29709,0.2970967 0.29709,0.6932256 0.39613,18.6180576 0.39613,28.7193446 0,13.864511 -0.39613,29.709667 -4.70403,0.222823 -8.66532,0.222823 -4.08508,0 -10.1508,-0.222823 -0.39613,0 -0.69323,-0.297097 -0.29709,-0.297096 -0.29709,-0.693225 -0.39613,-18.618058 -0.39613,-28.719345 z"
         id="path3634" />
      <path
         d="m 294.59594,61.639134 q 0,-0.396129 0.4704,-3.094757 1.31218,-8.1454 2.99572,-16.860236 1.68355,-8.739593 4.35742,-21.663299 2.67387,-12.9484628 3.49089,-16.9840259 4.95161,-0.2228225 13.61693,-0.2228225 8.07112,0 14.11209,0.2228225 0.39613,0 0.74274,0.2970967 0.34661,0.2723386 0.42089,0.6932256 1.08935,5.5210464 3.68895,18.0486226 2.62435,12.527576 4.45645,22.15846 1.85685,9.606126 3.16903,18.221929 -4.67927,0.222823 -8.6158,0.222823 -6.31331,0 -9.70516,-0.222823 -0.42089,-0.02476 -0.7675,-0.297097 -0.32186,-0.297096 -0.39613,-0.693225 -1.11411,-5.694353 -1.80734,-9.903222 h -9.18524 q -0.79226,5.298223 -1.90637,10.893544 -4.75354,0.222823 -8.19491,0.222823 -4.10984,0 -10.12605,-0.222823 -0.37137,0 -0.59419,-0.222822 -0.22282,-0.247581 -0.22282,-0.594194 z m 22.70313,-22.950718 h 5.57057 q -0.5942,-4.060321 -1.60928,-11.562012 -1.01508,-7.526449 -1.46072,-10.645964 -0.49517,4.035564 -1.31218,11.586771 -0.81702,7.526449 -1.18839,10.621205 z"
         id="path3636" />
      <path
         d="m 349.68262,32.746483 q 0,-13.864511 0.39613,-29.7096669 4.70403,-0.2228225 8.17016,-0.2228225 2.9462,0 8.56628,0.2228225 0.71799,0.024758 1.08936,0.9903223 L 378.15438,29.379387 377.80777,3.0368161 q 4.72879,-0.2228225 8.66532,-0.2228225 3.86226,0 9.16048,0.2228225 0.42089,0.024758 0.69323,0.3218547 0.29709,0.2723387 0.29709,0.6684676 0.39613,18.6180576 0.39613,28.7193446 0,13.864511 -0.39613,29.709667 -4.10983,0.222823 -7.67499,0.222823 -4.23363,0 -9.06145,-0.222823 -0.74275,-0.02476 -1.08936,-0.990322 l -10.24983,-25.352249 0.34661,26.342571 q -4.70403,0.222823 -8.17016,0.222823 -3.91177,0 -9.65564,-0.222823 -0.42089,-0.02476 -0.71798,-0.297097 -0.27234,-0.297096 -0.27234,-0.693225 -0.39613,-18.618058 -0.39613,-28.719345 z"
         id="path3638" />
    </g>
  </g>
</svg>
